<svg width="48" height="48" viewBox="0 0 48 48" fill="none" xmlns="http://www.w3.org/2000/svg">
<path d="M24 4C12.95 4 4 12.95 4 24C4 35.05 12.95 44 24 44C35.05 44 44 35.05 44 24C44 12.95 35.05 4 24 4Z" fill="#1A5F3A"/>
<path d="M24 10C16.27 10 10 16.27 10 24C10 31.73 16.27 38 24 38C31.73 38 38 31.73 38 24C38 16.27 31.73 10 24 10Z" fill="#F5F0E6"/>
<path d="M24 20C21.7909 20 20 21.7909 20 24C20 26.2091 21.7909 28 24 28C26.2091 28 28 26.2091 28 24C28 21.7909 26.2091 20 24 20Z" fill="#D4AF37"/>
</svg>
